<?xml version="1.0" encoding="UTF-8"?><svg id="Layer_2" xmlns="http://www.w3.org/2000/svg" viewBox="0 0 572.84 764.72"><defs><style>.cls-1,.cls-2{fill:#f05138;}.cls-1,.cls-3,.cls-4,.cls-5{stroke-width:0px;}.cls-6{stroke-linecap:round;}.cls-6,.cls-2,.cls-7,.cls-8{stroke:#000;stroke-miterlimit:10;stroke-width:15px;}.cls-6,.cls-7,.cls-5{fill:#fff;}.cls-3{fill:#a8e0ff;}.cls-4{fill:#000;}.cls-8{fill:none;}</style></defs><g id="Layer_6"><path class="cls-7" d="M7.67,231.93l63.82,485.75c1.36,10.35,8.95,18.79,19.1,21.24l13.54,3.27c87.03,21.01,177.93,19.97,264.46-3.04h0c9.79-2.6,17.05-10.84,18.4-20.88l66.6-486.35"/><path class="cls-5" d="M230.37,282.14c-60.94,0-118.14-5.92-161.07-16.68-20.17-5.05-36.55-11.11-47.37-17.52-9.3-5.51-14.43-11.19-14.43-16.01,0-8.33,16.18-22.1,61.79-33.53,42.93-10.75,100.13-16.68,161.07-16.68s118.14,5.92,161.07,16.68c20.17,5.05,36.54,11.11,47.37,17.52,9.3,5.51,14.42,11.19,14.42,16.01,0,8.33-16.18,22.1-61.79,33.53-42.93,10.75-100.13,16.68-161.07,16.68Z"/><path class="cls-4" d="M230.37,189.23c59.09,0,114.82,5.64,156.91,15.88,19.43,4.73,35.33,10.36,45.97,16.28,9.96,5.54,12.38,9.75,12.48,10.53-.1.82-2.52,5.03-12.48,10.57-10.64,5.92-26.54,11.55-45.97,16.28-42.09,10.24-97.82,15.88-156.91,15.88s-114.82-5.64-156.91-15.88c-19.43-4.73-35.33-10.36-45.97-16.28-9.96-5.54-12.38-9.75-12.48-10.53.1-.82,2.52-5.03,12.48-10.57,10.64-5.92,26.54-11.55,45.97-16.28,42.09-10.24,97.82-15.88,156.91-15.88M230.37,174.23C103.14,174.23,0,200.06,0,231.93s103.14,57.71,230.37,57.71,230.37-25.84,230.37-57.71-103.14-57.71-230.37-57.71h0Z"/><polygon class="cls-3" points="86.78 697.15 45.85 395.88 416.45 395.88 376.7 697.15 86.78 697.15"/><path class="cls-3" d="M231.15,438.97c-48.85,0-94.68-5.17-129.05-14.55-35.98-9.82-48.75-21.51-48.75-28.53s12.77-18.71,48.75-28.53c34.37-9.38,80.21-14.55,129.05-14.55s94.68,5.17,129.05,14.55c35.98,9.82,48.75,21.51,48.75,28.53s-12.77,18.71-48.75,28.53c-34.37,9.38-80.21,14.55-129.05,14.55Z"/><path class="cls-4" d="M231.15,360.29c46.19,0,89.97,4.72,123.29,13.28,36.2,9.31,46.11,19.71,46.99,22.3-.88,2.59-10.79,13-46.99,22.3-33.31,8.57-77.1,13.28-123.29,13.28s-89.97-4.72-123.29-13.28c-36.2-9.31-46.11-19.71-46.99-22.3.88-2.59,10.79-13,46.99-22.3,33.31-8.57,77.1-13.28,123.29-13.28M231.15,345.29c-102.34,0-185.3,22.65-185.3,50.59s82.96,50.59,185.3,50.59,185.3-22.65,185.3-50.59-82.96-50.59-185.3-50.59h0Z"/><path class="cls-3" d="M231.74,727.36c-38.1,0-73.84-3.84-100.62-10.8-27.03-7.03-36.85-15.46-36.85-19.41s9.81-12.38,36.85-19.41c26.78-6.97,62.51-10.8,100.62-10.8s73.84,3.84,100.62,10.8c27.03,7.03,36.85,15.46,36.85,19.41s-9.81,12.38-36.85,19.41c-26.78,6.97-62.51,10.8-100.62,10.8Z"/><path class="cls-4" d="M231.74,674.44c33.7,0,66.16,3.12,91.4,8.79,22.49,5.05,33.13,10.72,37.14,13.92-4.01,3.2-14.65,8.87-37.14,13.92-25.24,5.67-57.7,8.79-91.4,8.79s-66.16-3.12-91.4-8.79c-22.49-5.05-33.13-10.72-37.14-13.92,4.01-3.2,14.65-8.87,37.14-13.92,25.24-5.67,57.7-8.79,91.4-8.79M231.74,659.44c-80.06,0-144.96,16.88-144.96,37.71s64.9,37.71,144.96,37.71,144.96-16.88,144.96-37.71-64.9-37.71-144.96-37.71h0Z"/><line class="cls-6" x1="327.93" y1="526.64" x2="368.89" y2="526.64"/><line class="cls-6" x1="331.48" y1="585.76" x2="358.24" y2="585.76"/><circle class="cls-6" cx="76.04" cy="227.4" r="2.5"/><line class="cls-6" x1="108.99" y1="220.48" x2="131.45" y2="216.52"/><rect class="cls-7" x="362.84" y="107.54" width="181.14" height="23.79" rx="5" ry="5" transform="translate(217.25 -285.63) rotate(45)"/><path class="cls-7" d="M283.66,84.95h105.92v297.55c0,2.76-2.24,5-5,5h-95.92c-2.76,0-5-2.24-5-5V84.95h0Z" transform="translate(265.63 -168.84) rotate(45)"/><polygon class="cls-1" points="200.18 304.62 300.61 206.63 433.65 206.63 263.37 376.91 200.18 304.62"/><path class="cls-8" d="M283.66,84.95h105.92v297.55c0,2.76-2.24,5-5,5h-95.92c-2.76,0-5-2.24-5-5V84.95h0Z" transform="translate(265.63 -168.84) rotate(45)"/><rect class="cls-2" x="185.81" y="335.67" width="51.36" height="51.36" rx="5" ry="5" transform="translate(317.46 -43.71) rotate(45)"/><line class="cls-6" x1="193.34" y1="379.51" x2="75.57" y2="497.27"/><rect class="cls-7" x="452.15" y="54.62" width="66.08" height="66.08" rx="5" ry="5" transform="translate(204.09 -317.4) rotate(45)"/><rect class="cls-7" x="457.49" y="43.99" width="118.94" height="23.79" rx="5" ry="5" transform="translate(190.93 -349.18) rotate(45)"/><line class="cls-6" x1="330.68" y1="190.45" x2="363.03" y2="222.8"/><line class="cls-6" x1="301.72" y1="219.41" x2="334.08" y2="251.76"/><line class="cls-6" x1="272.77" y1="248.37" x2="305.12" y2="280.72"/><line class="cls-6" x1="243.81" y1="277.33" x2="276.16" y2="309.68"/><path class="cls-8" d="M230.37,282.01c-127.23,0-222.7-22.42-222.7-50.07"/><path class="cls-8" d="M453.59,231.93c0,27.65-96,50.07-223.23,50.07"/></g></svg>